<svg viewBox="0 0 1000 1000" xmlns="http://www.w3.org/2000/svg">
<defs>
<filter id="glow" x="-50%" y="-50%" width="200%" height="200%">
<feGaussianBlur in="SourceGraphic" stdDeviation="18" result="blur1"/>
<feColorMatrix in="blur1" type="matrix" values="0 0 0 0 0  0 0 0 0 0  0 0 0 0 0  0 0 0 1 0" result="dark1"/>
<feGaussianBlur in="SourceGraphic" stdDeviation="34" result="blur2"/>
<feColorMatrix in="blur2" type="matrix" values="0 0 0 0 0  0 0 0 0 0  0 0 0 0 0  0 0 0 0.6 0" result="dark2"/>
<feMerge>
<feMergeNode in="dark2"/>
<feMergeNode in="dark1"/>
</feMerge>
</filter>
</defs>
<g fill="#fdfdfc">
<g filter="url(#glow)">
<path transform="translate(56.68,675.41) scale(0.255517,-0.255517)" d="M751 267Q751 134 643.0 53.5Q535 -27 351 -27Q189 -27 101.0 36.0Q13 99 13 198Q13 266 49.5 307.5Q86 349 156 349Q209 349 246.0 308.0Q283 267 283 194V100Q283 49 303.5 19.0Q324 -11 372 -11Q419 -11 448.0 30.0Q477 71 477 147Q477 204 449.0 258.5Q421 313 384.0 375.0Q347 437 319.0 515.0Q291 593 291 699V1327Q291 1348 284.0 1358.0Q277 1368 259 1371L187 1382Q177 1383 172.5 1385.5Q168 1388 168 1391Q168 1396 173.0 1398.0Q178 1400 182 1400H750Q758 1400 761.5 1398.0Q765 1396 765 1393Q765 1389 736 1382L682 1372Q662 1368 652.5 1361.0Q643 1354 643 1340V701Q643 627 659.5 571.5Q676 516 697.5 468.0Q719 420 735.0 372.0Q751 324 751 267Z"/>
<path transform="translate(270.80,675.41) scale(0.255517,-0.255517)" d="M1281 861Q1281 726 1216.5 627.0Q1152 528 1038.5 474.0Q925 420 776 420Q654 420 574.5 446.5Q495 473 430 522L434 540Q480 508 518.0 489.0Q556 470 592.5 461.5Q629 453 667 453Q739 453 800.0 499.5Q861 546 898.5 638.0Q936 730 936 868Q936 1034 891.5 1148.0Q847 1262 772.0 1320.5Q697 1379 606 1379H544V58Q544 45 554.0 38.5Q564 32 585 27L658 15Q663 14 666.0 12.5Q669 11 669 7Q669 4 666.5 2.0Q664 0 659 0H76Q71 0 68.0 2.0Q65 4 65 8Q65 13 78 16L151 28Q171 32 180.5 39.0Q190 46 190 56V1339Q190 1352 180.5 1360.0Q171 1368 153 1372L75 1385Q65 1386 65 1392Q65 1396 67.5 1398.0Q70 1400 75 1400H606Q808 1400 959.5 1332.5Q1111 1265 1196.0 1143.5Q1281 1022 1281 861Z"/>
<path transform="translate(605.53,675.41) scale(0.255517,-0.255517)" d="M1309 334Q1309 186 1183.0 93.0Q1057 0 810 0H76Q71 0 68.0 2.5Q65 5 65 7Q65 14 79 16L148 27Q170 32 180.0 42.0Q190 52 190 74V1344Q190 1356 182.0 1362.5Q174 1369 148 1373L79 1384Q65 1386 65 1393Q65 1396 68.0 1398.0Q71 1400 76 1400H597Q801 1400 942.0 1348.5Q1083 1297 1156.0 1206.5Q1229 1116 1229 998Q1229 897 1172.0 821.0Q1115 745 1009.5 703.0Q904 661 760 661L816 668Q960 668 1071.5 625.5Q1183 583 1246.0 507.5Q1309 432 1309 334ZM677 649H509V671H684Q763 671 815.5 704.5Q868 738 894.0 805.5Q920 873 920 975Q920 1097 875.5 1187.5Q831 1278 756.5 1328.0Q682 1378 590 1378H536V64Q536 40 551.0 31.0Q566 22 594 22H715Q792 22 848.0 61.5Q904 101 934.0 172.5Q964 244 964 342Q964 485 891.0 567.0Q818 649 677 649Z"/>
</g>
<path transform="translate(56.68,675.41) scale(0.255517,-0.255517)" d="M751 267Q751 134 643.0 53.5Q535 -27 351 -27Q189 -27 101.0 36.0Q13 99 13 198Q13 266 49.5 307.5Q86 349 156 349Q209 349 246.0 308.0Q283 267 283 194V100Q283 49 303.5 19.0Q324 -11 372 -11Q419 -11 448.0 30.0Q477 71 477 147Q477 204 449.0 258.5Q421 313 384.0 375.0Q347 437 319.0 515.0Q291 593 291 699V1327Q291 1348 284.0 1358.0Q277 1368 259 1371L187 1382Q177 1383 172.5 1385.5Q168 1388 168 1391Q168 1396 173.0 1398.0Q178 1400 182 1400H750Q758 1400 761.5 1398.0Q765 1396 765 1393Q765 1389 736 1382L682 1372Q662 1368 652.5 1361.0Q643 1354 643 1340V701Q643 627 659.5 571.5Q676 516 697.5 468.0Q719 420 735.0 372.0Q751 324 751 267Z"/>
<path transform="translate(270.80,675.41) scale(0.255517,-0.255517)" d="M1281 861Q1281 726 1216.5 627.0Q1152 528 1038.5 474.0Q925 420 776 420Q654 420 574.5 446.5Q495 473 430 522L434 540Q480 508 518.0 489.0Q556 470 592.5 461.5Q629 453 667 453Q739 453 800.0 499.5Q861 546 898.5 638.0Q936 730 936 868Q936 1034 891.5 1148.0Q847 1262 772.0 1320.5Q697 1379 606 1379H544V58Q544 45 554.0 38.5Q564 32 585 27L658 15Q663 14 666.0 12.5Q669 11 669 7Q669 4 666.5 2.0Q664 0 659 0H76Q71 0 68.0 2.0Q65 4 65 8Q65 13 78 16L151 28Q171 32 180.5 39.0Q190 46 190 56V1339Q190 1352 180.5 1360.0Q171 1368 153 1372L75 1385Q65 1386 65 1392Q65 1396 67.5 1398.0Q70 1400 75 1400H606Q808 1400 959.5 1332.5Q1111 1265 1196.0 1143.5Q1281 1022 1281 861Z"/>
<path transform="translate(605.53,675.41) scale(0.255517,-0.255517)" d="M1309 334Q1309 186 1183.0 93.0Q1057 0 810 0H76Q71 0 68.0 2.5Q65 5 65 7Q65 14 79 16L148 27Q170 32 180.0 42.0Q190 52 190 74V1344Q190 1356 182.0 1362.5Q174 1369 148 1373L79 1384Q65 1386 65 1393Q65 1396 68.0 1398.0Q71 1400 76 1400H597Q801 1400 942.0 1348.5Q1083 1297 1156.0 1206.5Q1229 1116 1229 998Q1229 897 1172.0 821.0Q1115 745 1009.5 703.0Q904 661 760 661L816 668Q960 668 1071.5 625.5Q1183 583 1246.0 507.5Q1309 432 1309 334ZM677 649H509V671H684Q763 671 815.5 704.5Q868 738 894.0 805.5Q920 873 920 975Q920 1097 875.5 1187.5Q831 1278 756.5 1328.0Q682 1378 590 1378H536V64Q536 40 551.0 31.0Q566 22 594 22H715Q792 22 848.0 61.5Q904 101 934.0 172.5Q964 244 964 342Q964 485 891.0 567.0Q818 649 677 649Z"/>
</g>
</svg>