<?xml version="1.0" encoding="UTF-8"?>
<svg xmlns="http://www.w3.org/2000/svg" viewBox="0 0 690 377" fill="none" role="img" aria-hidden="true">
  <path d="M111.024 351.793C74.8415 351.793 59.6951 329.915 59.6951 280.268V94.3049C59.6951 45.5 75.6829 22.7805 111.024 22.7805C147.207 22.7805 162.354 44.6585 162.354 94.3049V281.11C162.354 329.915 146.366 351.793 111.024 351.793ZM111.024 364.415C166.561 364.415 217.049 318.134 217.049 187.707C217.049 57.2805 166.561 11 111.024 11C55.4878 11 5 57.2805 5 187.707C5 318.134 55.4878 364.415 111.024 364.415ZM315.5 349.268L300.354 340.854V33.7195L315.5 25.3049C366.829 25.3049 397.122 86.7317 397.122 187.707C397.122 288.683 374.402 350.11 315.5 349.268ZM219.573 349.268V359.366H293.622C384.5 371.988 450.976 288.683 450.976 187.707C450.976 86.7317 387.024 5.95122 301.195 16.0488H219.573V26.1463H238.927L251.549 33.7195V341.695L238.927 349.268H219.573ZM550.268 349.268L535.122 340.854V33.7195L550.268 25.3049C601.598 25.3049 631.89 86.7317 631.89 187.707C631.049 288.683 609.171 350.11 550.268 349.268ZM454.341 349.268V359.366H528.39C619.268 371.988 685.744 288.683 685.744 187.707C685.744 86.7317 621.793 5.95122 535.963 16.0488H454.341V26.1463H473.695L486.317 33.7195V341.695L473.695 349.268H454.341Z" fill="#fdfdfc"></path>
  <path d="M635.255 16.0488V11H654.609V16.0488H647.877V38.7683H641.987V16.0488H635.255ZM657.133 38.7683V11H665.548L671.438 31.1951L677.329 11H685.743V38.7683H680.694V16.8902L673.963 38.7683H668.914L662.182 16.8902V38.7683H657.133Z" fill="#fdfdfc"></path>
</svg>
